<svg width="125" height="24" viewBox="0 0 125 24" fill="none" xmlns="http://www.w3.org/2000/svg">
<path d="M0 3.48416V0.253394H15.7337V3.48416H9.86867V18.7873H5.86508V3.48416H0Z" fill="#2563EB"/>
<path d="M22.7143 19.0588C21.2363 19.0588 19.9642 18.7692 18.8978 18.19C17.8377 17.6048 17.0207 16.7783 16.447 15.7104C15.8733 14.6365 15.5864 13.3665 15.5864 11.9005C15.5864 10.4706 15.8733 9.21569 16.447 8.13575C17.0207 7.05581 17.8283 6.21418 18.8697 5.61086C19.9174 5.00754 21.1459 4.70588 22.5553 4.70588C23.5032 4.70588 24.3856 4.8537 25.2025 5.14932C26.0257 5.43891 26.7428 5.87632 27.354 6.46154C27.9714 7.04676 28.4515 7.78281 28.7945 8.66968C29.1375 9.55053 29.309 10.5822 29.309 11.7647V12.8235H17.1766V10.4344H25.558C25.558 9.87934 25.4333 9.38763 25.1838 8.95928C24.9344 8.53092 24.5883 8.19608 24.1455 7.95475C23.709 7.70739 23.2007 7.58371 22.6208 7.58371C22.0159 7.58371 21.4796 7.71946 21.0118 7.99095C20.5504 8.25641 20.1887 8.61538 19.9268 9.06787C19.6648 9.51433 19.5308 10.0121 19.5245 10.5611V12.8326C19.5245 13.5204 19.6555 14.1146 19.9174 14.6154C20.1856 15.1161 20.5628 15.5023 21.0493 15.7738C21.5357 16.0453 22.1125 16.181 22.7798 16.181C23.2225 16.181 23.6279 16.1207 23.9958 16C24.3638 15.8793 24.6787 15.6983 24.9406 15.457C25.2025 15.2157 25.4021 14.9201 25.5393 14.5701L29.2248 14.8054C29.0377 15.6621 28.6542 16.4103 28.0743 17.0498C27.5005 17.6833 26.7584 18.178 25.848 18.5339C24.9437 18.8839 23.8992 19.0588 22.7143 19.0588Z" fill="#2563EB"/>
<path d="M38.4013 19.0588C36.9295 19.0588 35.6636 18.7572 34.6035 18.1538C33.5496 17.5445 32.7389 16.6999 32.1714 15.6199C31.6101 14.54 31.3295 13.2971 31.3295 11.8914C31.3295 10.4676 31.6133 9.2187 32.1807 8.1448C32.7545 7.06486 33.5683 6.22323 34.6222 5.61991C35.6761 5.01056 36.9295 4.70588 38.3826 4.70588C39.636 4.70588 40.7336 4.92609 41.6752 5.36652C42.6169 5.80694 43.3621 6.42534 43.9109 7.22172C44.4597 8.0181 44.7621 8.95324 44.8182 10.0272H41.0579C40.9518 9.33333 40.6712 8.77526 40.216 8.35294C39.767 7.92459 39.1777 7.71041 38.448 7.71041C37.8307 7.71041 37.2912 7.8733 36.8298 8.1991C36.3745 8.51885 36.0191 8.98643 35.7634 9.60181C35.5077 10.2172 35.3799 10.9623 35.3799 11.8371C35.3799 12.724 35.5046 13.4781 35.754 14.0995C36.0097 14.721 36.3683 15.1946 36.8298 15.5204C37.2912 15.8462 37.8307 16.0091 38.448 16.0091C38.9033 16.0091 39.3117 15.9186 39.6734 15.7376C40.0414 15.5566 40.3438 15.2941 40.5808 14.9502C40.824 14.6003 40.983 14.181 41.0579 13.6923H44.8182C44.7559 14.7541 44.4565 15.6893 43.9202 16.4977C43.3902 17.3002 42.6574 17.9276 41.722 18.3801C40.7866 18.8326 39.6797 19.0588 38.4013 19.0588Z" fill="#2563EB"/>
<path d="M51.3545 10.7511V18.7873H47.3696V0.253394H51.2422V7.33937H51.4106C51.7349 6.51885 52.2587 5.87632 52.9821 5.41176C53.7055 4.94118 54.6129 4.70588 55.7042 4.70588C56.702 4.70588 57.5719 4.91704 58.314 5.33937C59.0623 5.75566 59.6423 6.35596 60.0539 7.14027C60.4717 7.91855 60.6775 8.85068 60.6713 9.93665V18.7873H56.6864V10.6244C56.6926 9.76772 56.4681 9.10106 56.0129 8.62443C55.5639 8.14781 54.934 7.9095 54.1233 7.9095C53.5808 7.9095 53.1006 8.02112 52.6828 8.24434C52.2712 8.46757 51.9469 8.79336 51.7099 9.22172C51.4792 9.64404 51.3607 10.1538 51.3545 10.7511Z" fill="#2563EB"/>
<path d="M75.0136 4.88688C74.9013 3.96983 74.4461 3.25792 73.6478 2.75113C72.8496 2.24434 71.8706 1.99095 70.7106 1.99095C69.8625 1.99095 69.1204 2.12368 68.4843 2.38914C67.8545 2.6546 67.3618 3.01961 67.0064 3.48416C66.6572 3.94872 66.4825 4.47662 66.4825 5.06787C66.4825 5.56259 66.6041 5.98793 66.8474 6.34389C67.0968 6.69382 67.4148 6.98643 67.8015 7.22172C68.1881 7.45098 68.5935 7.64103 69.0175 7.79186C69.4416 7.93665 69.8313 8.0543 70.1868 8.1448L72.1325 8.65158C72.6314 8.77828 73.1864 8.95324 73.7975 9.17647C74.4149 9.3997 75.0042 9.70437 75.5655 10.0905C76.1329 10.4706 76.6007 10.9593 76.9686 11.5566C77.3365 12.1538 77.5205 12.8869 77.5205 13.7557C77.5205 14.7572 77.2492 15.6621 76.7067 16.4706C76.1704 17.279 75.3846 17.9216 74.3494 18.3982C73.3205 18.8748 72.0701 19.1131 70.5984 19.1131C69.2264 19.1131 68.0385 18.8989 67.0344 18.4706C66.0367 18.0422 65.2509 17.4449 64.6772 16.6787C64.1097 15.9125 63.7885 15.0226 63.7137 14.0091H66.1084C66.1707 14.7089 66.4139 15.2881 66.838 15.7466C67.2683 16.1991 67.8108 16.537 68.4656 16.7602C69.1267 16.9774 69.8376 17.086 70.5984 17.086C71.4839 17.086 72.279 16.9472 72.9837 16.6697C73.6884 16.3861 74.2465 15.994 74.6581 15.4932C75.0697 14.9864 75.2755 14.3952 75.2755 13.7195C75.2755 13.1041 75.0977 12.6033 74.7423 12.2172C74.3868 11.8311 73.9191 11.5173 73.3392 11.276C72.7592 11.0347 72.1325 10.8235 71.459 10.6425L69.1017 9.99095C67.605 9.57466 66.4202 8.98039 65.5471 8.20815C64.6741 7.4359 64.2375 6.42534 64.2375 5.17647C64.2375 4.13876 64.5275 3.23379 65.1075 2.46154C65.6937 1.68326 66.4794 1.07994 67.4647 0.651584C68.4563 0.217195 69.5632 0 70.7855 0C72.0202 0 73.1178 0.214178 74.0781 0.642534C75.0385 1.06486 75.7993 1.64404 76.3606 2.38009C76.9281 3.11614 77.2274 3.95173 77.2586 4.88688H75.0136Z" fill="#172554"/>
<path d="M83.2429 10.4253V18.7873H81.0353V0.253394H83.2429V7.05882H83.43C83.7667 6.34088 84.2719 5.77074 84.9454 5.34842C85.6251 4.92006 86.5293 4.70588 87.6581 4.70588C88.6372 4.70588 89.4946 4.89593 90.2305 5.27602C90.9663 5.65008 91.537 6.22624 91.9423 7.00453C92.3539 7.77677 92.5597 8.76018 92.5597 9.95475V18.7873H90.3521V10.0995C90.3521 8.99548 90.0559 8.14178 89.4634 7.53846C88.8772 6.92911 88.0634 6.62443 87.022 6.62443C86.2986 6.62443 85.65 6.77225 85.0763 7.06787C84.5088 7.3635 84.0598 7.79487 83.7293 8.36199C83.405 8.92911 83.2429 9.61689 83.2429 10.4253Z" fill="#172554"/>
<path d="M102.435 19.0769C101.138 19.0769 100 18.7783 99.0211 18.181C98.0482 17.5837 97.2874 16.7481 96.7387 15.6742C96.1961 14.6003 95.9248 13.3454 95.9248 11.9095C95.9248 10.4615 96.1961 9.19759 96.7387 8.11765C97.2874 7.03771 98.0482 6.1991 99.0211 5.60181C100 5.00453 101.138 4.70588 102.435 4.70588C103.732 4.70588 104.867 5.00453 105.84 5.60181C106.819 6.1991 107.58 7.03771 108.123 8.11765C108.671 9.19759 108.946 10.4615 108.946 11.9095C108.946 13.3454 108.671 14.6003 108.123 15.6742C107.58 16.7481 106.819 17.5837 105.84 18.181C104.867 18.7783 103.732 19.0769 102.435 19.0769ZM102.435 17.1584C103.421 17.1584 104.231 16.914 104.867 16.4253C105.504 15.9367 105.974 15.2941 106.28 14.4977C106.585 13.7014 106.738 12.8386 106.738 11.9095C106.738 10.9804 106.585 10.1146 106.28 9.31222C105.974 8.5098 105.504 7.86124 104.867 7.36652C104.231 6.8718 103.421 6.62443 102.435 6.62443C101.45 6.62443 100.639 6.8718 100.003 7.36652C99.3672 7.86124 98.8964 8.5098 98.5908 9.31222C98.2852 10.1146 98.1324 10.9804 98.1324 11.9095C98.1324 12.8386 98.2852 13.7014 98.5908 14.4977C98.8964 15.2941 99.3672 15.9367 100.003 16.4253C100.639 16.914 101.45 17.1584 102.435 17.1584Z" fill="#172554"/>
<path d="M112.316 24V4.88688H114.448V7.09502H114.71C114.873 6.8537 115.097 6.546 115.384 6.17195C115.677 5.79186 116.095 5.454 116.637 5.15837C117.186 4.85671 117.928 4.70588 118.864 4.70588C120.073 4.70588 121.14 4.99849 122.063 5.58371C122.986 6.16893 123.706 6.99849 124.224 8.0724C124.741 9.1463 125 10.4133 125 11.8733C125 13.3454 124.741 14.6214 124.224 15.7014C123.706 16.7753 122.989 17.6078 122.072 18.1991C121.155 18.7843 120.098 19.0769 118.901 19.0769C117.978 19.0769 117.239 18.9291 116.684 18.6335C116.129 18.3318 115.702 17.991 115.403 17.6109C115.103 17.2247 114.873 16.905 114.71 16.6516H114.523V24H112.316ZM114.486 11.8371C114.486 12.8869 114.645 13.813 114.963 14.6154C115.281 15.4118 115.746 16.0362 116.357 16.4887C116.968 16.9351 117.716 17.1584 118.602 17.1584C119.525 17.1584 120.295 16.9231 120.912 16.4525C121.536 15.9759 122.004 15.3364 122.315 14.5339C122.633 13.7255 122.792 12.8265 122.792 11.8371C122.792 10.8597 122.637 9.97888 122.325 9.19457C122.019 8.40422 121.555 7.77979 120.931 7.32127C120.314 6.85671 119.537 6.62443 118.602 6.62443C117.704 6.62443 116.949 6.84465 116.338 7.28507C115.727 7.71946 115.265 8.32881 114.954 9.11312C114.642 9.8914 114.486 10.7994 114.486 11.8371Z" fill="#172554"/>
</svg>
